<?xml version="1.0" standalone="no"?><!DOCTYPE svg PUBLIC "-//W3C//DTD SVG 1.1//EN" "http://www.w3.org/Graphics/SVG/1.1/DTD/svg11.dtd"><svg t="1597161194889" class="icon" viewBox="0 0 1185 1024" version="1.1" xmlns="http://www.w3.org/2000/svg" p-id="9139" xmlns:xlink="http://www.w3.org/1999/xlink" width="231.4453125" height="200"><defs><style type="text/css"></style></defs><path d="M107.789474 0h319.218526A129.347368 129.347368 0 0 1 529.246316 50.176L840.757895 452.715789H0V107.789474a107.789474 107.789474 0 0 1 107.789474-107.789474z" fill="#EB9B00" p-id="9140"></path><path d="M138.186105 183.242105h909.312c48.074105 0 65.482105 5.012211 82.997895 14.389895 17.623579 9.377684 31.420632 23.174737 40.798316 40.744421 9.377684 17.569684 14.389895 35.031579 14.389895 82.997895v564.439579c0 48.074105-5.012211 65.482105-14.389895 82.997894-9.377684 17.623579-23.174737 31.420632-40.744421 40.798316-17.569684 9.377684-35.031579 14.389895-82.997895 14.389895H138.132211c-48.074105 0-65.482105-5.012211-82.997895-14.389895a97.926737 97.926737 0 0 1-40.798316-40.744421C5.012211 951.242105 0 933.834105 0 885.867789V321.374316c0-48.074105 5.012211-65.482105 14.389895-82.997895 9.377684-17.623579 23.174737-31.420632 40.744421-40.798316 17.569684-9.377684 35.031579-14.389895 82.997895-14.389894z" fill="#F8B700" p-id="9141"></path></svg>